<?xml version="1.0" encoding="utf-8"?>
<!-- Generator: Adobe Illustrator 26.0.3, SVG Export Plug-In . SVG Version: 6.00 Build 0)  -->
<svg version="1.1" id="Calque_1" xmlns="http://www.w3.org/2000/svg" xmlns:xlink="http://www.w3.org/1999/xlink" x="0px" y="0px"
	 viewBox="0 0 1024 768" style="enable-background:new 0 0 1024 768;" xml:space="preserve">
<style type="text/css">
	.st0{stroke:#000000;stroke-miterlimit:10;}
	.st1{display:none;}
	.st2{display:inline;fill:none;stroke:#000000;stroke-miterlimit:10;}
	.st3{display:inline;stroke:#000000;stroke-miterlimit:10;}
	.st4{fill:none;}
	.st5{display:inline;fill:#57B6D3;}
	.st6{display:inline;fill:#474747;}
	.st7{fill:#FFFFFF;}
</style>
<path class="st0" d="M872.8,226.9"/>
<g class="st1">
	<line class="st2" x1="1004" y1="120" x2="716" y2="702"/>
	<path class="st3" d="M927.5,116.5"/>
	<line class="st2" x1="872.8" y1="50" x2="584.8" y2="632"/>
	<line class="st2" x1="796.3" y1="46.5" x2="507.8" y2="628.3"/>
	<line class="st2" x1="447.6" y1="35.5" x2="735.7" y2="617.5"/>
	<line class="st2" x1="524.2" y1="32" x2="812.7" y2="613.9"/>
	<line class="st2" x1="614.7" y1="35.5" x2="902.7" y2="617.5"/>
	<line class="st2" x1="691.2" y1="32" x2="979.7" y2="613.9"/>
	<line class="st2" x1="942.3" y1="134.7" x2="708.5" y2="606.1"/>
	<line class="st2" x1="912.3" y1="96.7" x2="678.5" y2="568.1"/>
	<line class="st2" x1="892.3" y1="94.7" x2="658.5" y2="566.1"/>
	<line class="st2" x1="997.3" y1="94.7" x2="763.5" y2="566.1"/>
	<line class="st2" x1="760.3" y1="-156" x2="1048.8" y2="425.8"/>
</g>
<path class="st4" d="M349,460"/>
<g class="st1">
	<polygon class="st5" points="775.5,203.7 699.4,203.7 533.5,532.2 612.4,533.2 	"/>
	<polygon class="st5" points="699.5,204 775.6,204 941.5,-124.5 862.6,-125.5 	"/>
</g>
<g class="st1">
	<polygon class="st6" points="595.1,532.3 561.1,464.3 193.1,462.9 227.5,533.9 	"/>
	<polygon class="st6" points="560.8,464.5 594.9,532.6 962.9,534 928.5,463 	"/>
</g>
<g class="st1">
	<polygon class="st6" points="566.6,195.8 532.5,127.8 164.5,126.4 198.9,197.4 	"/>
	<polygon class="st6" points="532.3,128 566.3,196.1 934.3,197.5 899.9,126.5 	"/>
</g>
<g class="st1">
	<polygon class="st5" points="842.4,349.5 842.4,273.4 513.9,107.5 512.9,186.4 	"/>
	<polygon class="st5" points="842.8,274.9 842.8,351 514.3,516.9 513.3,438 	"/>
</g>
<g>
	<path class="st7" d="M570.9,294.3l-37,71l-19.3-39l-34.5-0.9l-20.6,42.1l-36.4-73.2h-70.8L329,322.8l77.5,153.8h34.1l19.4-39.2
		l19.4,39.2h35.4L605,294.3H570.9z M423.3,441.9L363,323.6h40.1l39.4,79.3L423.3,441.9z M496.6,441.4l-19.5-39l20.1-40.8l19.4,39.6
		L496.6,441.4z"/>
	<path class="st7" d="M530.6,445.6l4.2-8.6l84.2-42.3v-34.2l-36.5-18.9l7.2-15.8l70.2-0.5l-15.3-31.5l-72.8,0.5l-91.5,182.3
		l147.1,0.5l-15.9-31.7L530.6,445.6z M568.5,369.1l16.5,8.2l-27.2,13.5L568.5,369.1z"/>
</g>
</svg>
