<svg xmlns="http://www.w3.org/2000/svg" viewBox="0 0 331 183.21"><g id="Calque_2" data-name="Calque 2"><g id="Calque_1-2" data-name="Calque 1"><path d="M299,94.83l1-27.21-46.47-19.9L260.78,32,331,31.51,325.7,0,242.86.45h-.93l-37,71-19.26-39-34.49-.89-20.61,42.1L94.22.46H23.39L0,29,77.52,182.75h34.06L131,143.56l19.36,39.19h1l147.09.45,1.13-31.74-98,.32,1.25-4.64ZM94.28,148,34,29.79H74.13l39.41,79.28Zm53.81-39.41,20.1-40.76,19.42,39.64-20,40.08ZM270,80.42l-51.52,28.09,1.06-2.42,23-36.83Z"/></g></g></svg>